Coordinates
version=1
nRows=17
nColumns=40
inDegrees=yes

Units are S.I. units (second, meters, Newtons, ...)
If the header above contains a line with 'inDegrees', this indicates whether rotational values are in degrees (yes) or radians (no).

endheader
time	pelvis_tilt	pelvis_list	pelvis_rotation	pelvis_tx	pelvis_ty	pelvis_tz	hip_flexion_r	hip_adduction_r	hip_rotation_r	knee_angle_r	knee_angle_r_beta	ankle_angle_r	subtalar_angle_r	mtp_angle_r	hip_flexion_l	hip_adduction_l	hip_rotation_l	knee_angle_l	knee_angle_l_beta	ankle_angle_l	subtalar_angle_l	mtp_angle_l	lumbar_extension	lumbar_bending	lumbar_rotation	arm_flex_r	arm_add_r	arm_rot_r	elbow_flex_r	pro_sup_r	wrist_flex_r	wrist_dev_r	arm_flex_l	arm_add_l	arm_rot_l	elbow_flex_l	pro_sup_l	wrist_flex_l	wrist_dev_l
      3.00000000	     -6.32356941	    -11.54940191	      1.79893630	     -0.33937565	      0.72829955	     -0.98002429	     64.08231523	     -0.61033292	     -7.50501745	     15.55631477	      0.27150891	    -17.68361029	      0.00000000	      0.00000000	     64.01273931	     -9.82329688	      2.94372661	     94.23386901	      1.64469128	     24.20291453	      0.00000000	      0.00000000	    -18.08134988	      3.65086082	      7.33269444	     89.94645380	     -9.74694274	     12.18298018	     38.38666178	     72.39569522	      0.00000000	      0.00000000	     89.96020369	    -23.39488768	     15.03878203	     49.81310277	     76.57259459	      0.00000000	      0.00000000
      3.00500000	     -6.34159882	    -11.62786405	      1.75805679	     -0.33932913	      0.72815690	     -0.97986959	     63.96503473	     -0.49163444	     -7.40721683	     15.24460069	      0.26606848	    -17.95016569	      0.00000000	      0.00000000	     64.05731433	     -9.87819814	      3.02937933	     94.27526658	      1.64541380	     24.28790736	      0.00000000	      0.00000000	    -18.07292772	      3.69701925	      7.38819531	     89.94647150	     -9.81981946	     12.50763091	     38.54458819	     71.16315976	      0.00000000	      0.00000000	     89.96010201	    -23.40600645	     15.13619181	     49.94503922	     75.17595531	      0.00000000	      0.00000000
      3.01000000	     -6.36804059	    -11.62487113	      1.68658137	     -0.33915103	      0.72801811	     -0.97970031	     63.98294108	     -0.42936004	     -7.37798539	     15.24762540	      0.26612127	    -17.84072149	      0.00000000	      0.00000000	     64.07936828	     -9.92611174	      2.98214721	     94.30836448	      1.64599147	     24.23481782	      0.00000000	      0.00000000	    -18.04035618	      3.65658798	      7.45659069	     89.94655112	     -9.82278929	     11.97237989	     38.46586467	     75.66388384	      0.00000000	      0.00000000	     89.96017353	    -23.39618387	     14.67963656	     49.85468822	     79.87440084	      0.00000000	      0.00000000
      3.01500000	     -6.35327035	    -11.67259403	      1.74966201	     -0.33906126	      0.72784009	     -0.97975520	     63.96315448	     -0.46430582	     -7.44923431	     15.26235169	      0.26637829	    -17.82842996	      0.00000000	      0.00000000	     64.10031317	     -9.81503051	      3.14631385	     94.35737371	      1.64684684	     24.27910914	      0.00000000	      0.00000000	    -18.05866243	      3.72073105	      7.38285220	     89.94669382	     -9.77220888	     12.19231019	     38.59843193	     73.20178571	      0.00000000	      0.00000000	     89.96016893	    -23.45256260	     14.93929355	     49.96213615	     76.95495825	      0.00000000	      0.00000000
      3.02000000	     -6.34842140	    -11.71007715	      1.69926018	     -0.33894074	      0.72769017	     -0.97961536	     63.92503321	     -0.37714803	     -7.40461624	     15.18237925	      0.26498251	    -17.92511499	      0.00000000	      0.00000000	     64.11406316	     -9.85457704	      3.19244569	     94.40162048	      1.64761910	     24.33345682	      0.00000000	      0.00000000	    -18.05198832	      3.73670576	      7.41721110	     89.94654868	     -9.74298539	     12.49358825	     38.61554032	     70.96195993	      0.00000000	      0.00000000	     89.96011677	    -23.46857645	     15.12378503	     50.03537813	     74.49485191	      0.00000000	      0.00000000
      3.02500000	     -6.38431877	    -11.67861207	      1.68411184	     -0.33881052	      0.72744503	     -0.97955591	     64.12492423	     -0.41581336	     -7.47531716	     15.59236057	      0.27213803	    -17.42934994	      0.00000000	      0.00000000	     64.15825177	     -9.79159109	      3.19547192	     94.43379300	      1.64818061	     24.25613105	      0.00000000	      0.00000000	    -17.97476385	      3.69608322	      7.41200071	     89.94677235	     -9.55527789	     12.28606426	     38.43058343	     68.84193375	      0.00000000	      0.00000000	     89.96024129	    -23.36124583	     15.18955711	     49.91573129	     72.21887753	      0.00000000	      0.00000000
      3.03000000	     -6.34056016	    -11.74330842	      1.72018607	     -0.33867516	      0.72742450	     -0.97961069	     63.89099432	     -0.36110052	     -7.41716024	     15.18421014	      0.26501446	    -17.89742388	      0.00000000	      0.00000000	     64.11492247	     -9.74673330	      3.31623042	     94.44229095	      1.64832893	     24.35874973	      0.00000000	      0.00000000	    -18.04889523	      3.75854039	      7.40902319	     89.94667539	     -9.77931604	     12.04179774	     38.56586437	     75.25787137	      0.00000000	      0.00000000	     89.96019644	    -23.44063887	     14.50066485	     49.91242514	     80.19681178	      0.00000000	      0.00000000
      3.03500000	     -6.31117690	    -11.73420267	      1.70815239	     -0.33859570	      0.72732736	     -0.97954429	     63.82048657	     -0.33525572	     -7.41183167	     15.10835803	      0.26369059	    -17.99762036	      0.00000000	      0.00000000	     64.05996434	     -9.68955720	      3.33251077	     94.31061591	      1.64603077	     25.27696051	      0.00000000	      0.00000000	    -18.08560110	      3.73264874	      7.42581927	     89.94676994	     -9.72949339	     12.64416607	     38.81122126	     69.07680548	      0.00000000	      0.00000000	     89.96001062	    -23.47320713	     15.19332669	     50.19340610	     72.14905806	      0.00000000	      0.00000000
      3.04000000	     -6.30883535	    -11.76082626	      1.72475534	     -0.33848248	      0.72721594	     -0.97956589	     63.79894326	     -0.31963890	     -7.38422955	     15.11898616	      0.26387609	    -17.80198641	      0.00000000	      0.00000000	     64.05169226	     -9.60811408	      3.43534284	     94.31966369	      1.64618868	     25.39124589	      0.00000000	      0.00000000	    -18.08422700	      3.76501303	      7.40699367	     89.94681501	     -9.67892491	     12.97112403	     38.98859877	     65.49429037	      0.00000000	      0.00000000	     89.96010952	    -23.44527460	     15.48384791	     50.29576725	     68.07021171	      0.00000000	      0.00000000
      3.04500000	     -6.38684643	    -11.79211496	      1.68517273	     -0.33836684	      0.72693917	     -0.97947517	     63.87740543	     -0.27396868	     -7.29587603	     15.10636669	      0.26365584	    -18.13404107	      0.00000000	      0.00000000	     64.13946816	     -9.60313036	      3.48072635	     94.34867580	      1.64669504	     25.42604708	      0.00000000	      0.00000000	    -17.99159415	      3.78932293	      7.43933568	     89.94709930	     -9.71791270	     12.03805272	     38.74359243	     74.83832162	      0.00000000	      0.00000000	     89.96013039	    -23.43382385	     14.33164840	     49.92209429	     80.14037730	      0.00000000	      0.00000000
      3.05000000	     -6.42581247	    -11.86124772	      1.70892211	     -0.33833516	      0.72668253	     -0.97941576	     63.92551158	     -0.25542746	     -7.38270463	     15.15840372	      0.26456405	    -18.02962299	      0.00000000	      0.00000000	     64.21742533	     -9.55552574	      3.62428489	     94.37547235	      1.64716273	     25.51259811	      0.00000000	      0.00000000	    -17.93954448	      3.86071412	      7.42331611	     89.94704740	     -9.68671682	     12.25572856	     38.81511787	     72.66183310	      0.00000000	      0.00000000	     89.96025041	    -23.43957318	     14.57156069	     50.00117080	     77.42739992	      0.00000000	      0.00000000
      3.05500000	     -6.41934791	    -11.89392256	      1.69857129	     -0.33826086	      0.72649912	     -0.97935676	     63.92285447	     -0.22341037	     -7.49814970	     15.20036193	      0.26529636	    -17.96005063	      0.00000000	      0.00000000	     64.23321503	     -9.52734871	      3.70326772	     94.41083790	      1.64777997	     25.57816062	      0.00000000	      0.00000000	    -17.94935374	      3.89036135	      7.39220507	     89.94711608	     -9.58114169	     12.89803712	     39.03285493	     65.98773736	      0.00000000	      0.00000000	     89.96016198	    -23.49953735	     15.22029932	     50.28349058	     69.40045651	      0.00000000	      0.00000000
      3.06000000	     -6.45167136	    -11.93997180	      1.65680940	     -0.33821070	      0.72632318	     -0.97921237	     63.91520576	     -0.13535359	     -7.43064843	     15.11940804	      0.26388345	    -18.10118129	      0.00000000	      0.00000000	     64.27206307	     -9.54933075	      3.76375022	     94.43259164	      1.64815965	     25.67991046	      0.00000000	      0.00000000	    -17.91345033	      3.91634263	      7.45916777	     89.94718081	     -9.62378748	     13.12881800	     39.13723189	     64.75853465	      0.00000000	      0.00000000	     89.96022281	    -23.43649372	     15.23857632	     50.30272169	     68.14609000	      0.00000000	      0.00000000
      3.06500000	     -6.43752292	    -11.91981727	      1.70261064	     -0.33810560	      0.72619963	     -0.97932171	     63.96340727	     -0.19441447	     -7.41105953	     15.30076841	      0.26704879	    -17.95074050	      0.00000000	      0.00000000	     64.27220519	     -9.42244371	      3.82584233	     94.48722735	      1.64911322	     25.69461201	      0.00000000	      0.00000000	    -17.92422119	      3.93136236	      7.38681615	     89.94730919	     -9.50100394	     13.21492373	     39.24651134	     62.48525900	      0.00000000	      0.00000000	     89.96024821	    -23.49383086	     15.47296070	     50.37863664	     65.35929354	      0.00000000	      0.00000000
      3.07000000	     -6.46652463	    -11.85397122	      1.63679674	     -0.33796906	      0.72619396	     -0.97926682	     63.97048248	     -0.15633222	     -7.25232844	     15.30607043	      0.26714132	    -17.87477938	      0.00000000	      0.00000000	     64.23978316	     -9.43966836	      3.69190482	     94.45325002	      1.64852020	     25.72850293	      0.00000000	      0.00000000	    -17.89763304	      3.82648015	      7.44795848	     89.94744426	     -9.61730292	     11.99358323	     38.85884266	     75.01703278	      0.00000000	      0.00000000	     89.96046006	    -23.44057863	     14.05831982	     49.97953164	     79.99565533	      0.00000000	      0.00000000
      3.07500000	     -6.42841651	    -11.82071006	      1.59793774	     -0.33788121	      0.72615007	     -0.97918238	     63.94122587	     -0.11783028	     -7.23524443	     15.34162346	      0.26776184	    -17.92984173	      0.00000000	      0.00000000	     64.17814261	     -9.41257072	      3.69362012	     94.47020811	      1.64881618	     25.83705411	      0.00000000	      0.00000000	    -17.94726764	      3.79010651	      7.45084959	     89.94742970	     -9.51515665	     12.56874606	     39.06369081	     68.86783366	      0.00000000	      0.00000000	     89.96034815	    -23.52332533	     14.79511160	     50.24725137	     72.27115131	      0.00000000	      0.00000000
      3.08000000	     -6.45258272	    -11.78584801	      1.54491315	     -0.33780640	      0.72607854	     -0.97911158	     63.98115232	     -0.08045857	     -7.13079129	     15.39868042	      0.26875767	    -17.91730872	      0.00000000	      0.00000000	     64.17480287	     -9.41641748	      3.64083276	     94.46641302	      1.64874994	     25.86809225	      0.00000000	      0.00000000	    -17.92798331	      3.72027290	      7.51987304	     89.94764787	     -9.60735363	     11.94920025	     38.90713054	     75.00741631	      0.00000000	      0.00000000	     89.96030750	    -23.43778664	     13.95271890	     50.04255951	     79.74174844	      0.00000000	      0.00000000
